<?xml version="1.0" encoding="UTF-8"?>
<svg id="Ebene_2" data-name="Ebene 2" xmlns="http://www.w3.org/2000/svg" viewBox="0 0 436.89 471">
  <defs>
    <style>
      .cls-1 {
        fill: #fff;
      }
    </style>
  </defs>
  <g id="Ebene_1-2" data-name="Ebene 1">
    <g>
      <path d="M71.73,247.95c-2.49,10.46,3.47,19.53,12.97,22.24,7.23,2.06,14.21-2.23,15.69-9.51,1.39-6.84,7.53-11.07,14.13-9.84,6.1,1.14,10.85,7.07,9.56,14.03-3.64,19.68-22.27,32.97-42.03,29.37-25.61-4.66-40.64-30.13-32.97-54.92s32.31-39.57,57.9-34.37c29.95,6.09,50.58,33.8,47.26,64.46-4.18,38.55-39.16,66.64-77.56,62.6-53.33-5.61-87.19-57.79-73.73-108.43,15.84-59.6,75.38-88.51,134.39-73.96l151.22,37.29c36.41,8.98,73.49-6.66,97.36-33.71,27.98-31.69,26.14-79.17-2.69-109.24-24.5-25.55-64.1-26.85-89.55-2.19-21.14,20.48-19.93,54.78,4.16,72.51,14.43,10.62,34.34,8.22,46.52-4.78,10.99-11.73,9.08-30.37-4.31-39.16-7.4-4.86-16.9-3.24-22.82,2.86-5.14,5.3-4.86,13.24.67,18.02,5.2,4.5,5.8,11.93,1.7,16.92-4.43,5.37-12.23,6.04-17.68,1.15-13.23-11.88-16.61-30.98-6.98-46.33,12.9-20.57,40.75-25.76,60.38-11.35,24.46,17.95,26.93,53.14,6.15,74.82-25.15,26.24-66.22,24.12-89.61-3.41-22.77-26.8-22.97-66.14-.09-92.89,34.02-39.76,94.16-39.77,129.34-2.3,41.27,43.95,35.65,108.2-5.69,151.1l-105.63,109.6c-26.74,27.75-33.71,67.91-21.66,103.63,14.34,42.51,60.24,64.9,102.65,50.34,33.6-11.54,50.86-48.74,37.4-81.9-9.13-22.49-33.82-33.93-56.99-27.16-18.7,5.46-29.4,23.84-24.93,42.67,3.45,14.56,17.34,23.38,31.88,19.82,11.25-2.76,17.52-14.43,12.9-25.09-6.79-15.67-23.36,2.89-30.43-12.99-2.33-5.22-.52-12.92,5.83-15.51,19.83-8.12,42.06,2.57,48.28,23.03,7.63,25.13-8.33,50.12-34.16,54.67s-52.31-12.73-58.04-39.66c-7.03-33.03,13.86-64.36,46.93-71.36,32.92-6.96,66.52,9.59,80.16,40.49,20.47,46.38-4,99.88-51.28,115.86-60.2,20.34-119.44-16.23-136.75-76.55l-41.51-144.69c-10.98-38.26-41.85-65.97-80.53-73.45-47.8-9.25-94.39,26.58-95.3,75.97-.56,30.81,22.64,56.73,52.6,61.18,25.97,3.86,49.98-14.31,53.36-40.13,2.72-20.73-12.89-39.27-33.61-39.62-12-.2-22.08,8.23-24.86,19.89ZM276.59,267.12l53.33-55.64c-16.28,1.54-31.53,2.91-47.33-.92l-84.36-20.42c12.65,15.61,20.51,31.65,25.89,50.11l21.77,74.71c7.03-18.88,17.06-33.62,30.7-47.85Z"/>
      <path class="cls-1" d="M276.59,267.12c-13.64,14.23-23.67,28.97-30.7,47.85l-21.77-74.71c-5.38-18.46-13.24-34.5-25.89-50.11l84.36,20.42c15.79,3.82,31.04,2.46,47.33.92l-53.33,55.64Z"/>
    </g>
  </g>
</svg>